# xmcd
#
# Track frame offsets: 
#        150
#        10151
#        20354
#        32301
#        42101
#        52119
#        63728
#        82065
#        99127
#        114940
#        129396
#        134923
#
# Disc length: 1952 seconds
#
# Revision: 0
# Processed by: cddbd v1.5.2PL0 Copyright (c) Steve Scherf et al.
# Submitted via: ExactAudioCopy v0.99pb4
#
DISCID=98079e0c
DTITLE=Praxis - Сквозь Горизонт
DYEAR=2009
DGENRE=Deatcore
TTITLE0=Раз За Разом
TTITLE1=Смех В Тишине
TTITLE2=Выстрел В Сердце
TTITLE3=Я Враг
TTITLE4=Нет Сил
TTITLE5=Мразь
TTITLE6=Время Оплатиь Долги
TTITLE7=Реки
TTITLE8=Мороз В Висках
TTITLE9=Новый Виток Спирали
TTITLE10=Hardcore
TTITLE11=Вишнёвый Закат
EXTD=
EXTT0=
EXTT1=
EXTT2=
EXTT3=
EXTT4=
EXTT5=
EXTT6=
EXTT7=
EXTT8=
EXTT9=
EXTT10=
EXTT11=
PLAYORDER=
